<svg width="184" height="35" viewBox="0 0 184 35" fill="none" xmlns="http://www.w3.org/2000/svg"><g clip-path="url(#clip0_2087_1538)"><path d="M15.721 25.5629C15.7334 26.1911 15.6203 26.8155 15.3885 27.3996C15.1566 27.9836 14.8106 28.5155 14.3706 28.9642C13.9307 29.4129 13.4057 29.7693 12.8264 30.0127C12.247 30.256 11.6249 30.3813 10.9966 30.3813C10.3682 30.3813 9.74616 30.256 9.16681 30.0127C8.58746 29.7693 8.06242 29.4129 7.6225 28.9642C7.18257 28.5155 6.83658 27.9836 6.60472 27.3996C6.37286 26.8155 6.25983 26.1911 6.27222 25.5629C6.27222 25.403 6.2722 25.245 6.29608 25.0907H1.39075C1.39075 27.6395 2.40328 30.084 4.20559 31.8863C6.00789 33.6886 8.45235 34.7011 11.0012 34.7011C13.55 34.7011 15.9945 33.6886 17.7968 31.8863C19.5991 30.084 20.6116 27.6395 20.6116 25.0907H15.7007C15.7209 25.245 15.721 25.403 15.721 25.5629Z" fill="white"/><path d="M44.0874 21.5578H49.4833C49.2138 22.8208 48.5145 23.9513 47.5047 24.7563C46.3436 25.6345 44.7746 26.0112 43.3948 26.0112C41.1681 26.0112 39.6929 25.133 38.7522 24.2236C37.874 23.3766 36.6817 21.7139 36.6817 18.9214C36.6817 16.5698 37.6003 14.5617 38.7834 13.4098C40.0695 12.1549 41.9526 11.5597 43.6153 11.5597C44.6318 11.5584 45.6358 11.7831 46.5548 12.2174C47.6108 12.7644 48.47 13.6268 49.013 14.6848L52.557 12.7722C51.6388 11.1512 50.2792 9.8241 48.6364 8.94534C47.0362 8.09839 45.3735 7.84302 43.8046 7.84302C39.7627 7.84302 37.1226 9.44322 35.5555 11.0434C34.2988 12.2982 32.48 14.7766 32.48 18.8222C32.48 23.5273 34.8683 26.171 35.5867 26.8838C37.8758 29.1748 40.5747 29.7076 43.178 29.7076C45.7814 29.7076 48.4471 29.1124 50.6114 26.9518C53.4976 24.0986 53.6869 19.7059 53.6869 18.2949V18.0432H44.0874V21.5578Z" fill="white"/><path d="M66.0457 17.4167C64.7597 15.4086 62.7222 15.212 61.686 15.212C57.6717 15.212 54.9417 18.4106 54.9417 22.4268C54.9417 26.4098 57.6975 29.6727 61.8734 29.6727C62.8472 29.6727 64.666 29.4522 66.0457 27.4681V29.2244H69.8745V15.6603H66.0457V17.4167ZM62.6579 26.2941C60.4625 26.2941 58.8935 24.6002 58.8935 22.4359C58.8935 20.2717 60.4625 18.609 62.6579 18.609C64.8534 18.609 66.4224 20.2625 66.4224 22.4359C66.4224 24.6094 64.8552 26.2941 62.6579 26.2941Z" fill="white"/><path d="M76.0842 6.37512H72.2573V29.2428H76.0842V6.37512Z" fill="white"/><path d="M88.8841 17.4167C87.5981 15.4086 85.5588 15.212 84.5244 15.212C80.5083 15.212 77.78 18.4106 77.78 22.4268C77.78 26.4098 80.5358 29.6727 84.7118 29.6727C85.6837 29.6727 87.5044 29.4522 88.8841 27.4681V29.2244H92.711V15.6603H88.8841V17.4167ZM85.4963 26.2941C83.3008 26.2941 81.7319 24.6002 81.7319 22.4359C81.7319 20.2717 83.3008 18.609 85.4963 18.609C87.6918 18.609 89.2607 20.2625 89.2607 22.4359C89.2607 24.6094 87.6918 26.2941 85.4963 26.2941Z" fill="white"/><path d="M96.7584 16.9776C95.3786 18.2011 94.4049 20.1137 94.4049 22.4892C94.4049 25.03 95.5348 26.724 96.571 27.6958C97.7927 28.857 99.6759 29.6727 101.809 29.6727C103.03 29.673 104.233 29.3847 105.322 28.8312V25.1017C104.504 25.8647 103.429 26.2906 102.31 26.294C100.021 26.294 98.3586 24.6626 98.3586 22.4359C98.3586 20.4591 99.6446 18.609 102.185 18.609C103.347 18.5772 104.474 19.005 105.322 19.7995V16.0369C104.178 15.4797 102.919 15.2002 101.647 15.2212C100.334 15.2212 98.4211 15.5023 96.7584 16.9776Z" fill="white"/><path d="M113.273 11.0177H109.446V15.6603H107.017V18.9214H109.446V29.2428H113.273V18.9214H115.908V15.6603H113.273V11.0177Z" fill="white"/><path d="M121.811 15.6604H117.984V29.2429H121.811V15.6604Z" fill="white"/><path d="M125.806 16.9776C124.427 18.2011 123.455 20.1137 123.455 22.4892C123.455 25.03 124.583 26.724 125.619 27.6958C126.843 28.857 128.724 29.6727 130.857 29.6727C132.079 29.671 133.283 29.3808 134.372 28.8257V25.1017C133.554 25.8645 132.478 26.2904 131.36 26.294C129.069 26.294 127.407 24.6626 127.407 22.4359C127.407 20.4591 128.693 18.609 131.234 18.609C132.395 18.5781 133.523 19.0058 134.372 19.7995V16.0369C133.228 15.4797 131.969 15.2002 130.697 15.2212C129.384 15.2212 127.469 15.5023 125.806 16.9776Z" fill="white"/><path d="M146.368 8.31897H132.878V11.8335H137.585V29.2429H141.661V11.8335H146.368V8.31897Z" fill="white"/><path d="M155.025 17.4167C153.739 15.4086 151.702 15.212 150.666 15.212C146.65 15.212 143.921 18.4106 143.921 22.4268C143.921 26.4098 146.677 29.6727 150.853 29.6727C151.827 29.6727 153.646 29.4522 155.025 27.4681V29.2244H158.852V15.6603H155.025V17.4167ZM151.638 26.2941C149.433 26.2941 147.873 24.6002 147.873 22.4359C147.873 20.2717 149.442 18.609 151.638 18.609C153.833 18.609 155.402 20.2625 155.402 22.4359C155.402 24.6094 153.835 26.2941 151.638 26.2941Z" fill="white"/><path d="M165.692 6.37512H161.865V29.2428H165.692V6.37512Z" fill="white"/><path d="M175.909 20.6612L172.53 20.6153V6.37512H168.703V29.2428H172.53V23.4556L173.511 23.4391L179.223 29.2428H184L175.909 20.6612Z" fill="white"/><path d="M183.245 14.738H178.904L173.906 19.5276H178.272L183.245 14.738Z" fill="white"/><path d="M121.452 8.17749L118.388 13.7883H122.143L125.184 8.17749H121.452Z" fill="white"/><path d="M25.1404 0H20.2644L17.7419 4.60955C15.544 2.87718 12.766 2.05247 9.97883 2.30489C7.19167 2.5573 4.60708 3.86766 2.75613 5.9667C0.905177 8.06574 -0.0715235 10.794 0.026781 13.5908C0.125085 16.3877 1.29093 19.0407 3.28468 21.0046C5.27844 22.9685 7.94867 24.0941 10.7467 24.1502C13.5447 24.2063 16.2579 23.1886 18.3288 21.3062C20.3997 19.4238 21.6709 16.8197 21.8813 14.029C22.0916 11.2384 21.2251 8.47317 19.4597 6.30162H21.7195L25.1404 0ZM4.503 13.215C4.50268 12.1369 4.77239 11.0758 5.28749 10.1287C5.80259 9.18154 6.54671 8.37848 7.45191 7.79279C8.3571 7.20711 9.39457 6.85746 10.4696 6.77573C11.5447 6.69401 12.623 6.88282 13.6064 7.32494C12.2079 7.55205 10.9358 8.26935 10.0178 9.3485C9.09977 10.4276 8.59563 11.7982 8.59563 13.215C8.59563 14.6318 9.09977 16.0024 10.0178 17.0816C10.9358 18.1607 12.2079 18.878 13.6064 19.1051C12.623 19.5462 11.5448 19.7343 10.4702 19.6521C9.39549 19.5699 8.35847 19.2202 7.45357 18.6347C6.54866 18.0492 5.80464 17.2466 5.28929 16.3C4.77393 15.3533 4.50363 14.2928 4.503 13.215Z" fill="white"/></g><defs><clipPath id="clip0_2087_1538"><rect width="184" height="34.7012" fill="white"/></clipPath></defs></svg>