<svg width="202" height="132" viewBox="0 0 202 132" fill="none" xmlns="http://www.w3.org/2000/svg">
<path d="M108.939 61.8441C108.969 63.3649 108.697 64.8764 108.137 66.2902C107.578 67.7039 106.743 68.9915 105.681 70.0776C104.619 71.1638 103.353 72.0266 101.955 72.6156C100.557 73.2046 99.0555 73.508 97.5393 73.508C96.023 73.508 94.522 73.2046 93.124 72.6156C91.726 72.0266 90.459 71.1638 89.3975 70.0776C88.3359 68.9915 87.501 67.7039 86.9415 66.2902C86.382 64.8764 86.1093 63.3649 86.1392 61.8441C86.1392 61.4572 86.1391 61.0747 86.1968 60.7012H74.36C74.36 66.8711 76.8033 72.7883 81.1523 77.1511C85.5014 81.5139 91.3999 83.9648 97.5504 83.9648C103.701 83.9648 109.599 81.5139 113.948 77.1511C118.298 72.7883 120.741 66.8711 120.741 60.7012H108.891C108.939 61.0747 108.939 61.4572 108.939 61.8441Z" fill="white"/>
<path d="M130.976 0.701172H119.211L113.124 11.8594C107.82 7.66587 101.117 5.66953 94.391 6.28053C87.6655 6.89154 81.4288 10.0635 76.9623 15.1446C72.4959 20.2256 70.1391 26.8299 70.3763 33.6001C70.6135 40.3703 73.4267 46.7923 78.2378 51.5462C83.0488 56.3002 89.4922 59.0251 96.2439 59.1609C102.996 59.2967 109.543 56.8331 114.54 52.2764C119.537 47.7197 122.605 41.4161 123.112 34.6608C123.62 27.9056 121.529 21.2119 117.269 15.9553H122.722L130.976 0.701172ZM81.1776 32.6904C81.1768 30.0805 81.8277 27.5121 83.0706 25.2193C84.3136 22.9266 86.1092 20.9827 88.2935 19.5649C90.4777 18.1472 92.9812 17.3008 95.5753 17.103C98.1695 16.9051 100.772 17.3622 103.144 18.4324C99.7698 18.9822 96.7003 20.7185 94.4851 23.3308C92.2698 25.943 91.0533 29.2607 91.0533 32.6904C91.0533 36.12 92.2698 39.4377 94.4851 42.05C96.7003 44.6622 99.7698 46.3985 103.144 46.9483C100.771 48.0161 98.1698 48.4713 95.5766 48.2724C92.9834 48.0735 90.481 47.2268 88.2975 45.8095C86.1139 44.3922 84.3185 42.4494 83.075 40.1579C81.8314 37.8665 81.1791 35.2994 81.1776 32.6904Z" fill="white"/>
<path d="M15.4318 120.256H22.6055C22.2472 121.94 21.3175 123.448 19.9749 124.522C18.4313 125.693 16.3453 126.195 14.511 126.195C11.5507 126.195 9.58936 125.024 8.33879 123.811C7.17127 122.682 5.58607 120.464 5.58607 116.74C5.58607 113.603 6.80731 110.925 8.3803 109.389C10.0901 107.716 12.5937 106.922 14.8041 106.922C16.1555 106.92 17.4904 107.22 18.7122 107.799C20.116 108.528 21.2583 109.679 21.9802 111.09L26.6919 108.539C25.4711 106.377 23.6636 104.607 21.4795 103.435C19.3521 102.305 17.1416 101.965 15.0557 101.965C9.68218 101.965 6.17224 104.099 4.08877 106.233C2.41809 107.907 0 111.212 0 116.607C0 122.883 3.17525 126.408 4.13028 127.359C7.17366 130.415 10.7617 131.125 14.2228 131.125C17.6838 131.125 21.2279 130.331 24.1052 127.45C27.9424 123.645 28.194 117.786 28.194 115.904V115.569H15.4318V120.256Z" fill="white"/>
<path d="M44.7626 114.905C43.0528 112.227 40.3441 111.965 38.9665 111.965C33.6296 111.965 30 116.231 30 121.587C30 126.899 33.6638 131.251 39.2156 131.251C40.5102 131.251 42.9282 130.957 44.7626 128.31V130.653H49.8528V112.563H44.7626V114.905ZM40.2586 126.745C37.3398 126.745 35.2539 124.486 35.2539 121.599C35.2539 118.713 37.3398 116.495 40.2586 116.495C43.1774 116.495 45.2633 118.701 45.2633 121.599C45.2633 124.498 43.1798 126.745 40.2586 126.745Z" fill="white"/>
<path d="M58.0878 99.9648H53V130.463H58.0878V99.9648Z" fill="white"/>
<path d="M74.7626 114.905C73.0528 112.227 70.3416 111.965 68.9665 111.965C63.6271 111.965 60 116.231 60 121.587C60 126.899 63.6638 131.251 69.2156 131.251C70.5077 131.251 72.9282 130.957 74.7626 128.31V130.653H79.8503V112.563H74.7626V114.905ZM70.2586 126.745C67.3398 126.745 65.2539 124.486 65.2539 121.599C65.2539 118.713 67.3398 116.495 70.2586 116.495C73.1774 116.495 75.2633 118.701 75.2633 121.599C75.2633 124.498 73.1774 126.745 70.2586 126.745Z" fill="white"/>
<path d="M85.1289 114.309C83.2945 115.941 82 118.491 82 121.659C82 125.048 83.5022 127.307 84.8797 128.603C86.504 130.152 89.0076 131.24 91.8434 131.24C93.4665 131.24 95.0667 130.856 96.5134 130.118V125.144C95.4267 126.161 93.9968 126.729 92.5102 126.734C89.4668 126.734 87.2563 124.558 87.2563 121.588C87.2563 118.952 88.966 116.485 92.344 116.485C93.8881 116.442 95.3864 117.013 96.5134 118.072V113.054C94.9931 112.311 93.3194 111.938 91.6284 111.966C89.882 111.966 87.3394 112.341 85.1289 114.309Z" fill="white"/>
<path d="M107.317 105.965H102.229V112.157H99V116.506H102.229V130.271H107.317V116.506H110.819V112.157H107.317V105.965Z" fill="white"/>
<path d="M119.088 111.965H114V130.079H119.088V111.965Z" fill="white"/>
<path d="M124.126 114.309C122.292 115.941 121 118.491 121 121.659C121 125.048 122.5 127.307 123.877 128.603C125.504 130.152 128.005 131.24 130.841 131.24C132.465 131.238 134.066 130.851 135.513 130.11V125.144C134.427 126.161 132.997 126.729 131.51 126.734C128.464 126.734 126.254 124.558 126.254 121.588C126.254 118.952 127.964 116.485 131.342 116.485C132.886 116.443 134.385 117.014 135.513 118.072V113.054C133.993 112.311 132.319 111.938 130.628 111.966C128.882 111.966 126.337 112.341 124.126 114.309Z" fill="white"/>
<path d="M150.935 102.965H133V107.652H139.258V130.871H144.678V107.652H150.935V102.965Z" fill="white"/>
<path d="M162.763 114.905C161.053 112.227 158.344 111.965 156.966 111.965C151.627 111.965 148 116.231 148 121.587C148 126.899 151.664 131.251 157.216 131.251C158.51 131.251 160.928 130.957 162.763 128.31V130.653H167.85V112.563H162.763V114.905ZM158.259 126.745C155.328 126.745 153.254 124.486 153.254 121.599C153.254 118.713 155.34 116.495 158.259 116.495C161.177 116.495 163.263 118.701 163.263 121.599C163.263 124.498 161.18 126.745 158.259 126.745Z" fill="white"/>
<path d="M177.088 99.9648H172V130.463H177.088V99.9648Z" fill="white"/>
<path d="M190.58 119.018L186.088 118.957V99.9648H181V130.463H186.088V122.745L187.392 122.723L194.986 130.463H201.336L190.58 119.018Z" fill="white"/>
<path d="M200.415 111H194.644L188 117.388H193.803L200.415 111Z" fill="white"/>
<path d="M118.074 102L114 109.483H118.993L123.035 102H118.074Z" fill="white"/>
</svg>
